<?xml version="1.0" encoding="utf-8"?>
<!-- Generator: Adobe Illustrator 25.4.1, SVG Export Plug-In . SVG Version: 6.00 Build 0)  -->
<svg version="1.1" id="Warstwa_1" xmlns="http://www.w3.org/2000/svg" xmlns:xlink="http://www.w3.org/1999/xlink" x="0px" y="0px"
	 viewBox="0 0 267.7 101.7" style="enable-background:new 0 0 267.7 101.7;" xml:space="preserve">
<style type="text/css">
	.st0{fill:#FFFFFF;}
	.st1{fill:#DFE6EB;}
	.st2{fill:#FFFFFF;stroke:#000000;}
	.st3{opacity:0.9;clip-path:url(#SVGID_00000090290809186216869400000003393251777266126240_);fill:#2B6042;}
	.st4{fill:#001E00;}
	.st5{fill:#7F909C;}
	.st6{fill:#2B6042;}
	.st7{fill:none;stroke:#000000;stroke-miterlimit:10;}
	.st8{fill:#4B7F60;}
	.st9{fill:none;stroke:#FFFFFF;stroke-width:2;stroke-linecap:round;stroke-linejoin:round;stroke-miterlimit:10;}
	.st10{fill:none;stroke:#000000;stroke-width:2;stroke-linecap:round;stroke-linejoin:round;stroke-miterlimit:10;}
	.st11{fill:#E0D0B6;stroke:#000000;stroke-width:2;stroke-linecap:round;stroke-linejoin:round;stroke-miterlimit:10;}
	.st12{opacity:0.9;clip-path:url(#SVGID_00000061442523292919141240000015724967961240834962_);fill:#2B6042;}
	.st13{fill:#1A1A1A;}
	.st14{fill:#4B7F60;stroke:#FFFFFF;stroke-width:2;stroke-linecap:round;stroke-linejoin:round;stroke-miterlimit:10;}
	.st15{fill:#333333;stroke:#FFFFFF;stroke-width:4;stroke-miterlimit:10;}
	.st16{fill:#7FA07F;stroke:#FFFFFF;stroke-width:4;stroke-miterlimit:10;}
	.st17{fill:#99B9C4;}
	.st18{fill:#113A0C;}
	.st19{fill:none;stroke:#FFFFFF;stroke-miterlimit:10;}
	.st20{fill:none;stroke:#FFFFFF;stroke-miterlimit:10;stroke-dasharray:11.9831,11.9831;}
</style>
<g>
	<defs>
		<rect id="SVGID_00000163034537560136967590000001164864442475090342_" x="-363" y="369.4" width="1365" height="768"/>
	</defs>
	<clipPath id="SVGID_00000167363909814711900340000007669668426838534319_">
		<use xlink:href="#SVGID_00000163034537560136967590000001164864442475090342_"  style="overflow:visible;"/>
	</clipPath>
</g>
<g>
	<g>
		<g>
			<path d="M0.8,93.4c-0.1,0-0.2,0-0.3-0.1c-0.4-0.2-0.5-0.6-0.4-1C23.3,44.8,68.2,11.7,120.4,3.6c22.6-3.5,45.1-2.2,67,3.7
				c21.1,5.8,40.6,15.6,57.8,29.3c0.3,0.3,0.4,0.7,0.1,1.1c-0.3,0.3-0.7,0.4-1.1,0.1C209.5,10.3,164.5-1.7,120.6,5.1
				C69,13.1,24.4,46,1.4,93C1.3,93.3,1,93.4,0.8,93.4z"/>
		</g>
		<g>
			
				<ellipse transform="matrix(0.5184 -0.8551 0.8551 0.5184 85.657 239.7702)" class="st8" cx="255.7" cy="43.8" rx="5.6" ry="13.1"/>
			<path d="M262.2,52c-3.4,0-6.8-0.9-9.8-2.8l0,0c-4.5-2.7-7.5-7-8.7-12.1c-0.1-0.4,0.2-0.8,0.5-0.9c5-1.3,10.3-0.6,14.7,2.1
				c4.5,2.7,7.5,7,8.7,12.1c0.1,0.4-0.2,0.8-0.5,0.9C265.5,51.8,263.8,52,262.2,52z M253.2,48c3.9,2.4,8.4,3.1,12.8,2.1
				c-1.2-4.4-3.9-8-7.8-10.4c-3.9-2.4-8.4-3.1-12.8-2.1C246.6,41.9,249.3,45.6,253.2,48L253.2,48z"/>
		</g>
		<g>
			
				<ellipse transform="matrix(0.9883 -0.1525 0.1525 0.9883 -1.044 37.4827)" class="st8" cx="243.8" cy="25.5" rx="13.1" ry="5.6"/>
			<path d="M241.9,32.1c-4.1,0-8.1-1.3-11.4-3.9c-0.3-0.2-0.4-0.7-0.2-1c3-4.3,7.5-7,12.6-7.8c5.1-0.8,10.3,0.5,14.4,3.7
				c0.3,0.2,0.4,0.7,0.2,1c-3,4.3-7.5,7-12.6,7.8C243.8,32,242.8,32.1,241.9,32.1z M231.9,27.4c3.7,2.6,8.1,3.6,12.6,2.9
				c4.5-0.7,8.4-3,11.2-6.6c-3.7-2.6-8.1-3.6-12.6-2.9C238.6,21.5,234.7,23.8,231.9,27.4z"/>
		</g>
		<g>
			<ellipse transform="matrix(0.9468 -0.3218 0.3218 0.9468 -0.427 77.7479)" class="st8" cx="235" cy="40.2" rx="5.6" ry="13.1"/>
			<path d="M239.2,53.3c-0.1,0-0.2,0-0.3-0.1c-4.7-2.2-8.2-6.1-9.9-11.1c-1.7-4.9-1.3-10.2,1.1-14.8c0.2-0.4,0.6-0.5,1-0.3
				c4.7,2.2,8.2,6.1,9.9,11.1l0,0c1.7,4.9,1.3,10.2-1.1,14.8C239.7,53.2,239.5,53.3,239.2,53.3z M231.1,28.8
				c-1.9,4.1-2.2,8.7-0.7,13c1.5,4.3,4.4,7.8,8.4,9.8c1.9-4.1,2.2-8.7,0.7-13l0,0C238.1,34.3,235.1,30.8,231.1,28.8z"/>
		</g>
		<g>
			<ellipse transform="matrix(0.9844 -0.1758 0.1758 0.9844 0.8886 39.9844)" class="st8" cx="226.2" cy="15" rx="13.1" ry="5.6"/>
			<path d="M223.9,21.5c-4,0-7.8-1.2-11.1-3.6c-0.3-0.2-0.4-0.7-0.2-1c2.9-4.3,7.3-7.2,12.4-8.1c5.1-0.9,10.3,0.3,14.5,3.3
				c0.3,0.2,0.4,0.7,0.2,1c-2.9,4.3-7.3,7.2-12.4,8.1l0,0C226.1,21.4,225,21.5,223.9,21.5z M214.3,17.1c3.8,2.5,8.2,3.4,12.7,2.6
				l0,0c4.5-0.8,8.3-3.2,11-6.9c-3.8-2.5-8.2-3.4-12.7-2.6C220.8,11,217,13.4,214.3,17.1z"/>
		</g>
		<g>
			<ellipse transform="matrix(0.939 -0.344 0.344 0.939 3.0335 76.6959)" class="st8" cx="217.6" cy="29.8" rx="5.6" ry="13.1"/>
			<path d="M222.1,42.9c-0.1,0-0.2,0-0.3-0.1c-4.8-2.1-8.4-5.9-10.2-10.8c-1.8-4.9-1.5-10.2,0.8-14.8c0.2-0.4,0.6-0.5,1-0.4
				c4.8,2.1,8.4,5.9,10.2,10.8l0,0c1.8,4.9,1.5,10.2-0.8,14.8C222.7,42.7,222.4,42.9,222.1,42.9z M213.5,18.5c-1.8,4.1-2,8.7-0.4,13
				c1.6,4.3,4.6,7.7,8.7,9.6c1.8-4.1,2-8.7,0.4-13S217.5,20.5,213.5,18.5z"/>
		</g>
		<g>
			<ellipse transform="matrix(0.9756 -0.2197 0.2197 0.9756 3.583 45.5565)" class="st8" cx="206.6" cy="6.7" rx="13.1" ry="5.6"/>
			<path d="M203.8,13.3c-3.7,0-7.3-1.1-10.4-3.2c-0.3-0.2-0.4-0.7-0.2-1c2.7-4.5,7-7.5,12-8.7c5.1-1.1,10.3-0.2,14.6,2.7
				c0.3,0.2,0.4,0.7,0.2,1c-2.7,4.5-7,7.5-12,8.7l0,0C206.6,13.2,205.2,13.3,203.8,13.3z M207.8,12.1L207.8,12.1L207.8,12.1z
				 M194.9,9.3c3.9,2.3,8.4,3.1,12.8,2.1c4.4-1,8.2-3.6,10.7-7.4C214.5,1.7,210,1,205.5,2C201.1,3,197.4,5.6,194.9,9.3z"/>
		</g>
		<g>
			
				<ellipse transform="matrix(0.9226 -0.3858 0.3858 0.9226 6.9529 78.3708)" class="st8" cx="198.8" cy="21.9" rx="5.6" ry="13.1"/>
			<path d="M203.8,34.7c-0.1,0-0.2,0-0.3-0.1c-4.9-1.9-8.6-5.6-10.6-10.4s-2-10.1,0.1-14.9c0.2-0.4,0.6-0.6,1-0.4
				c4.9,1.9,8.6,5.6,10.6,10.4c0,0,0,0,0,0c2,4.8,2,10.1-0.1,14.9C204.4,34.5,204.1,34.7,203.8,34.7z M194.1,10.8
				c-1.6,4.2-1.6,8.8,0.2,13c1.8,4.2,5,7.4,9.1,9.2c1.6-4.2,1.6-8.8-0.2-13l0,0C201.5,15.8,198.3,12.6,194.1,10.8z"/>
		</g>
	</g>
	<g>
		<path d="M55.8,93l-1.7-5.3c0-0.1-0.1-0.1-0.2-0.1H41.5c-0.1,0-0.1,0-0.2,0.1L39.7,93c-0.1,0.2-0.3,0.3-0.5,0.3h-2.3
			c-0.3,0-0.4-0.2-0.3-0.5l9.2-28.5c0.1-0.2,0.3-0.3,0.5-0.3h2.8c0.3,0,0.4,0.1,0.5,0.3l9.3,28.5l0,0.2c0,0.2-0.1,0.3-0.4,0.3h-2.3
			C56.1,93.3,55.9,93.2,55.8,93z M42.2,85.1c0,0,0.1,0.1,0.1,0.1h10.8c0.1,0,0.1,0,0.1-0.1c0,0,0-0.1,0-0.1l-5.4-17.1
			c0-0.1-0.1-0.1-0.1-0.1c-0.1,0-0.1,0-0.1,0.1L42.2,85C42.1,85,42.1,85.1,42.2,85.1z"/>
		<path d="M77,72.2h2.1c0.3,0,0.4,0.1,0.4,0.4v20.3c0,0.3-0.1,0.4-0.4,0.4H77c-0.3,0-0.4-0.1-0.4-0.4v-1.8c0-0.1,0-0.1-0.1-0.1
			c-0.1,0-0.1,0-0.1,0c-1.2,1.7-3,2.6-5.6,2.6c-1.3,0-2.6-0.3-3.7-0.8c-1.1-0.5-2-1.3-2.7-2.4c-0.7-1-1-2.3-1-3.7V72.6
			c0-0.3,0.1-0.4,0.4-0.4H66c0.3,0,0.4,0.1,0.4,0.4v13.3c0,1.6,0.4,2.9,1.3,3.8c0.9,0.9,2.1,1.4,3.6,1.4c1.6,0,2.9-0.5,3.8-1.4
			c0.9-0.9,1.4-2.2,1.4-3.8V72.6C76.6,72.3,76.7,72.2,77,72.2z"/>
		<path d="M99.8,64h2.1c0.3,0,0.4,0.1,0.4,0.4v28.5c0,0.3-0.1,0.4-0.4,0.4h-2.1c-0.3,0-0.4-0.1-0.4-0.4v-1.8c0-0.1,0-0.1-0.1-0.1
			c0,0-0.1,0-0.1,0.1c-0.6,0.8-1.4,1.4-2.3,1.9c-0.9,0.4-1.9,0.7-3,0.7c-2,0-3.6-0.5-4.9-1.5c-1.3-1-2.2-2.4-2.7-4.1
			c-0.4-1.3-0.6-3-0.6-5.3c0-2.3,0.2-4,0.5-5.2c0.5-1.8,1.4-3.2,2.8-4.2c1.3-1,3-1.5,5-1.5c1.1,0,2.1,0.2,3,0.6
			c0.9,0.4,1.7,1.1,2.3,1.9c0.1,0.1,0.1,0.1,0.1,0.1s0.1,0,0.1-0.1v-9.8C99.4,64.2,99.5,64,99.8,64z M99.1,85.9
			c0.1-0.8,0.2-1.8,0.2-3.1s-0.1-2.4-0.2-3.2c-0.1-0.8-0.3-1.4-0.6-2c-0.3-0.9-0.9-1.7-1.7-2.3c-0.8-0.6-1.7-0.9-2.7-0.9
			c-1.1,0-2.1,0.3-2.9,0.8c-0.8,0.6-1.4,1.3-1.8,2.2c-0.3,0.6-0.6,1.3-0.7,2.1c-0.2,0.8-0.2,1.8-0.2,3.2c0,1.3,0.1,2.3,0.2,3.1
			c0.1,0.7,0.3,1.4,0.6,2c0.3,1,0.9,1.8,1.8,2.4c0.9,0.6,1.9,0.9,3,0.9c1.1,0,2-0.3,2.8-0.9c0.8-0.6,1.3-1.4,1.7-2.3
			C98.9,87.3,99,86.6,99.1,85.9z"/>
		<path d="M107.8,101.3v-1.7c0-0.3,0.1-0.4,0.4-0.4h0.2c1.1,0,1.9-0.2,2.5-0.5c0.6-0.3,1.1-0.8,1.5-1.6s0.9-2,1.4-3.6
			c0.1-0.1,0.1-0.2,0-0.3l-7.1-20.6l0-0.2c0-0.2,0.1-0.3,0.4-0.3h2.2c0.3,0,0.4,0.1,0.5,0.3l5.4,16.9c0,0.1,0.1,0.1,0.1,0.1
			c0.1,0,0.1,0,0.1-0.1l5.4-16.9c0.1-0.2,0.3-0.3,0.5-0.3h2.2c0.3,0,0.4,0.2,0.3,0.5l-7.7,22.6c-0.7,1.9-1.3,3.2-1.9,4.1
			c-0.6,0.9-1.3,1.5-2.2,1.9c-0.9,0.3-2.1,0.5-3.7,0.5h-0.3C107.9,101.7,107.8,101.6,107.8,101.3z"/>
		<path d="M137.4,74.6h-4.7c-0.1,0-0.2,0.1-0.2,0.2v12.3c0,1.3,0.3,2.3,0.9,2.8c0.6,0.5,1.5,0.8,2.8,0.8h1c0.3,0,0.4,0.1,0.4,0.4
			v1.7c0,0.3-0.1,0.4-0.4,0.4c-0.3,0-0.9,0-1.5,0c-2,0-3.5-0.4-4.6-1.1c-1-0.8-1.5-2.1-1.5-4.2V74.8c0-0.1-0.1-0.2-0.2-0.2h-2.6
			c-0.3,0-0.4-0.1-0.4-0.4v-1.6c0-0.3,0.1-0.4,0.4-0.4h2.6c0.1,0,0.2-0.1,0.2-0.2v-4.9c0-0.3,0.1-0.4,0.4-0.4h2
			c0.3,0,0.4,0.1,0.4,0.4V72c0,0.1,0.1,0.2,0.2,0.2h4.7c0.3,0,0.4,0.1,0.4,0.4v1.6C137.8,74.5,137.7,74.6,137.4,74.6z"/>
		<path d="M165.5,64h2.1c0.3,0,0.4,0.1,0.4,0.4v28.5c0,0.3-0.1,0.4-0.4,0.4h-2.1c-0.3,0-0.4-0.1-0.4-0.4v-1.8c0-0.1,0-0.1-0.1-0.1
			c0,0-0.1,0-0.1,0.1c-0.6,0.8-1.4,1.4-2.3,1.9c-0.9,0.4-1.9,0.7-3,0.7c-2,0-3.6-0.5-4.9-1.5c-1.3-1-2.2-2.4-2.7-4.1
			c-0.4-1.3-0.6-3-0.6-5.3c0-2.3,0.2-4,0.5-5.2c0.5-1.8,1.4-3.2,2.8-4.2c1.3-1,3-1.5,5-1.5c1.1,0,2.1,0.2,3,0.6
			c0.9,0.4,1.7,1.1,2.3,1.9c0.1,0.1,0.1,0.1,0.1,0.1s0.1,0,0.1-0.1v-9.8C165.1,64.2,165.2,64,165.5,64z M164.9,85.9
			c0.1-0.8,0.2-1.8,0.2-3.1s-0.1-2.4-0.2-3.2c-0.1-0.8-0.3-1.4-0.6-2c-0.3-0.9-0.9-1.7-1.7-2.3c-0.8-0.6-1.7-0.9-2.7-0.9
			c-1.1,0-2.1,0.3-2.9,0.8c-0.8,0.6-1.4,1.3-1.8,2.2c-0.3,0.6-0.6,1.3-0.7,2.1c-0.2,0.8-0.2,1.8-0.2,3.2c0,1.3,0.1,2.3,0.2,3.1
			c0.1,0.7,0.3,1.4,0.6,2c0.3,1,0.9,1.8,1.8,2.4c0.9,0.6,1.9,0.9,3,0.9c1.1,0,2-0.3,2.8-0.9c0.8-0.6,1.3-1.4,1.7-2.3
			C164.6,87.3,164.8,86.6,164.9,85.9z"/>
		<path d="M172.9,92.9v-2c0-0.2,0.1-0.4,0.2-0.5l11.9-15.3c0.1-0.1,0.1-0.1,0-0.1c0,0-0.1-0.1-0.1-0.1h-11.4c-0.3,0-0.4-0.1-0.4-0.4
			v-1.9c0-0.3,0.1-0.4,0.4-0.4h14.7c0.3,0,0.4,0.1,0.4,0.4v2c0,0.2-0.1,0.4-0.2,0.5l-12,15.3c-0.1,0.1-0.1,0.1,0,0.1
			c0,0,0.1,0.1,0.1,0.1h11.7c0.3,0,0.4,0.1,0.4,0.4v1.9c0,0.3-0.1,0.4-0.4,0.4h-14.9C173,93.3,172.9,93.2,172.9,92.9z"/>
		<path d="M193.7,67.6c-0.4-0.4-0.7-1-0.7-1.7c0-0.7,0.2-1.3,0.7-1.7c0.4-0.4,1-0.6,1.7-0.6c0.7,0,1.2,0.2,1.7,0.6
			c0.4,0.4,0.7,1,0.7,1.7c0,0.7-0.2,1.2-0.7,1.7c-0.4,0.4-1,0.7-1.7,0.7C194.7,68.3,194.2,68.1,193.7,67.6z M193.8,92.9V72.5
			c0-0.3,0.1-0.4,0.4-0.4h2.1c0.3,0,0.4,0.1,0.4,0.4v20.3c0,0.3-0.1,0.4-0.4,0.4h-2.1C194,93.3,193.8,93.1,193.8,92.9z"/>
		<path d="M217.2,73.7c1.4,1.3,2.1,3,2.1,5.1v14.1c0,0.3-0.1,0.4-0.4,0.4h-2.1c-0.3,0-0.4-0.1-0.4-0.4v-1.7c0-0.1,0-0.1-0.1-0.1
			c0,0-0.1,0-0.1,0c-0.7,0.8-1.6,1.5-2.7,1.9c-1.1,0.4-2.4,0.6-3.7,0.6c-2,0-3.6-0.5-5-1.5c-1.3-1-2-2.5-2-4.6c0-2.1,0.8-3.7,2.3-5
			c1.5-1.2,3.6-1.8,6.3-1.8h4.9c0.1,0,0.2-0.1,0.2-0.2V79c0-1.4-0.4-2.5-1.2-3.4c-0.8-0.8-2-1.2-3.7-1.2c-1.3,0-2.4,0.3-3.3,0.8
			s-1.4,1.2-1.5,2.2c-0.1,0.3-0.3,0.4-0.5,0.4l-2.3-0.3c-0.3-0.1-0.4-0.2-0.4-0.3c0.2-1.6,1.1-2.8,2.5-3.8c1.5-1,3.3-1.5,5.4-1.5
			C213.9,71.8,215.8,72.5,217.2,73.7z M214.5,89.9c1.2-0.8,1.8-1.9,1.8-3.3v-3.3c0-0.1-0.1-0.2-0.2-0.2h-4.4c-1.8,0-3.3,0.4-4.4,1.1
			s-1.7,1.8-1.7,3.1c0,1.2,0.4,2.2,1.3,2.8c0.9,0.6,2,0.9,3.3,0.9C211.9,91.1,213.3,90.7,214.5,89.9z"/>
		<path d="M235.4,76.1c0,0.1-0.1,0.2-0.3,0.4l-4.5,2.7c-0.1,0-0.1,0.1-0.1,0.2v13.5c0,0.3-0.1,0.4-0.4,0.4H228
			c-0.3,0-0.4-0.1-0.4-0.4V81.3c0-0.1,0-0.1-0.1-0.1c0,0-0.1,0-0.1,0l-2.8,1.7l-0.2,0.1c-0.1,0-0.3-0.1-0.4-0.3l-0.7-1.3
			c-0.1-0.1-0.1-0.2-0.1-0.3c0-0.2,0.1-0.3,0.2-0.3l4.1-2.4c0.1-0.1,0.1-0.1,0.1-0.2V64.5c0-0.3,0.1-0.4,0.4-0.4h2.1
			c0.3,0,0.4,0.1,0.4,0.4v11.9c0,0.1,0,0.1,0.1,0.1c0,0,0.1,0,0.1,0l3.2-2c0.1-0.1,0.2-0.1,0.3-0.1c0.1,0,0.3,0.1,0.3,0.3l0.8,1.3
			L235.4,76.1z"/>
		<path d="M239.8,92.9V64.5c0-0.3,0.1-0.4,0.4-0.4h2.1c0.3,0,0.4,0.1,0.4,0.4v17.1c0,0.1,0,0.1,0.1,0.1c0,0,0.1,0,0.1,0l8.9-9.3
			c0.1-0.1,0.3-0.2,0.5-0.2h2.5c0.2,0,0.3,0.1,0.3,0.2c0.1,0.1,0,0.2-0.1,0.3l-5.4,5.9c-0.1,0.1-0.1,0.1,0,0.2l6.4,14l0,0.2
			c0,0.2-0.1,0.3-0.4,0.3h-2.3c-0.2,0-0.4-0.1-0.5-0.3l-5.4-12.2c-0.1-0.1-0.1-0.1-0.2,0l-4.6,4.9c-0.1,0.1-0.1,0.1-0.1,0.2v7.1
			c0,0.3-0.1,0.4-0.4,0.4h-2.1C239.9,93.3,239.8,93.2,239.8,92.9z"/>
		<path d="M261.1,67.6c-0.4-0.4-0.7-1-0.7-1.7c0-0.7,0.2-1.3,0.7-1.7c0.4-0.4,1-0.6,1.7-0.6c0.7,0,1.2,0.2,1.7,0.6
			c0.4,0.4,0.7,1,0.7,1.7c0,0.7-0.2,1.2-0.7,1.7c-0.4,0.4-1,0.7-1.7,0.7C262.1,68.3,261.5,68.1,261.1,67.6z M261.1,92.9V72.5
			c0-0.3,0.1-0.4,0.4-0.4h2.1c0.3,0,0.4,0.1,0.4,0.4v20.3c0,0.3-0.1,0.4-0.4,0.4h-2.1C261.3,93.3,261.1,93.1,261.1,92.9z"/>
	</g>
</g>
</svg>
